<?xml version="1.0" encoding="UTF-8"?>
<svg xmlns="http://www.w3.org/2000/svg" xmlns:xlink="http://www.w3.org/1999/xlink" width="64" height="64"
  viewBox="0 0 64 64" version="1.1">
  <g id="surface1">
    <path style=" stroke:none;fill-rule:nonzero;fill:#5d78ff;fill-opacity:1;"
      d="M 59.3125 2.3125 L 4.6875 2.3125 C 2.101562 2.3125 0 4.414062 0 7 L 0 48.25 C 0 50.835938 2.101562 52.9375 4.6875 52.9375 L 24.695312 52.9375 L 23.566406 56.886719 C 23.113281 58.472656 21.335938 59.8125 19.6875 59.8125 L 12.625 59.8125 C 12.105469 59.8125 11.6875 60.230469 11.6875 60.75 C 11.6875 61.269531 12.105469 61.6875 12.625 61.6875 L 51.375 61.6875 C 51.894531 61.6875 52.3125 61.269531 52.3125 60.75 C 52.3125 60.230469 51.894531 59.8125 51.375 59.8125 L 44.3125 59.8125 C 42.664062 59.8125 40.886719 58.472656 40.433594 56.886719 L 39.304688 52.9375 L 59.3125 52.9375 C 61.898438 52.9375 64 50.835938 64 48.25 L 64 7 C 64 4.414062 61.898438 2.3125 59.3125 2.3125 Z M 4.6875 4.1875 L 59.3125 4.1875 C 60.863281 4.1875 62.125 5.449219 62.125 7 L 62.125 39.8125 L 1.875 39.8125 L 1.875 7 C 1.875 5.449219 3.136719 4.1875 4.6875 4.1875 Z M 38.632812 57.402344 C 38.886719 58.300781 39.398438 59.128906 40.070312 59.8125 L 23.929688 59.8125 C 24.601562 59.128906 25.113281 58.300781 25.367188 57.402344 L 26.644531 52.9375 L 37.355469 52.9375 Z M 59.3125 51.0625 L 4.6875 51.0625 C 3.136719 51.0625 1.875 49.800781 1.875 48.25 L 1.875 41.6875 L 62.125 41.6875 L 62.125 48.25 C 62.125 49.800781 60.863281 51.0625 59.3125 51.0625 Z M 59.3125 51.0625 " />
    <path style=" stroke:none;fill-rule:nonzero;fill:#5d78ff;fill-opacity:1;"
      d="M 4.6875 37.9375 L 59.3125 37.9375 C 59.832031 37.9375 60.25 37.519531 60.25 37 L 60.25 7 C 60.25 6.480469 59.832031 6.0625 59.3125 6.0625 L 4.6875 6.0625 C 4.167969 6.0625 3.75 6.480469 3.75 7 L 3.75 20.125 C 3.75 20.644531 4.167969 21.0625 4.6875 21.0625 C 5.207031 21.0625 5.625 20.644531 5.625 20.125 L 5.625 7.9375 L 58.375 7.9375 L 58.375 36.0625 L 5.625 36.0625 L 5.625 23.875 C 5.625 23.355469 5.207031 22.9375 4.6875 22.9375 C 4.167969 22.9375 3.75 23.355469 3.75 23.875 L 3.75 37 C 3.75 37.519531 4.167969 37.9375 4.6875 37.9375 Z M 4.6875 37.9375 " />
    <path style=" stroke:none;fill-rule:nonzero;fill:#5d78ff;fill-opacity:1;"
      d="M 32 43.5625 C 30.449219 43.5625 29.1875 44.824219 29.1875 46.375 C 29.1875 47.925781 30.449219 49.1875 32 49.1875 C 33.550781 49.1875 34.8125 47.925781 34.8125 46.375 C 34.8125 44.824219 33.550781 43.5625 32 43.5625 Z M 32 47.3125 C 31.484375 47.3125 31.0625 46.890625 31.0625 46.375 C 31.0625 45.859375 31.484375 45.4375 32 45.4375 C 32.515625 45.4375 32.9375 45.859375 32.9375 46.375 C 32.9375 46.890625 32.515625 47.3125 32 47.3125 Z M 32 47.3125 " />
  </g>
</svg>