<?xml version="1.0" encoding="UTF-8"?>
<svg xmlns="http://www.w3.org/2000/svg" xmlns:xlink="http://www.w3.org/1999/xlink" width="64" height="64"
  viewBox="0 0 64 64" version="1.1">
  <g id="surface1">
    <path style=" stroke:none;fill-rule:nonzero;fill:#5d78ff;fill-opacity:1;"
      d="M 60.539062 3.15625 L 25.179688 3.15625 C 23.273438 3.15625 21.71875 4.710938 21.71875 6.621094 L 21.71875 20.582031 L 3.460938 20.582031 C 1.554688 20.582031 0 22.136719 0 24.046875 L 0 42.554688 C 0 43.070312 0.417969 43.492188 0.9375 43.492188 C 1.457031 43.492188 1.875 43.070312 1.875 42.554688 L 1.875 24.046875 C 1.875 23.167969 2.585938 22.457031 3.460938 22.457031 L 26.1875 22.457031 C 26.703125 22.457031 27.125 22.039062 27.125 21.519531 C 27.125 21 26.703125 20.582031 26.1875 20.582031 L 23.59375 20.582031 L 23.59375 6.621094 C 23.59375 5.746094 24.304688 5.03125 25.179688 5.03125 L 60.539062 5.03125 C 61.414062 5.03125 62.125 5.746094 62.125 6.621094 L 62.125 16.0625 C 62.125 16.582031 62.542969 17 63.0625 17 C 63.582031 17 64 16.582031 64 16.0625 L 64 6.621094 C 64 4.710938 62.445312 3.15625 60.539062 3.15625 Z M 60.539062 3.15625 " />
    <path style=" stroke:none;fill-rule:nonzero;fill:#5d78ff;fill-opacity:1;"
      d="M 63.0625 19.503906 C 62.542969 19.503906 62.125 19.925781 62.125 20.441406 L 62.125 31.875 C 62.125 32.75 61.414062 33.460938 60.539062 33.460938 L 57.757812 33.460938 C 57.242188 33.460938 56.820312 33.882812 56.820312 34.398438 L 56.820312 40.21875 L 50.339844 33.734375 C 50.164062 33.558594 49.925781 33.460938 49.675781 33.460938 L 42.28125 33.460938 L 42.28125 26.167969 C 42.480469 25.964844 42.675781 25.757812 42.863281 25.550781 C 44.910156 27.832031 47.667969 29.898438 51.378906 31.242188 C 51.484375 31.277344 51.59375 31.296875 51.699219 31.296875 C 52.082031 31.296875 52.441406 31.058594 52.578125 30.679688 C 52.757812 30.191406 52.503906 29.652344 52.015625 29.476562 C 48.527344 28.214844 45.960938 26.246094 44.070312 24.078125 C 47.601562 19.367188 48.53125 14.160156 48.769531 12.101562 L 51.570312 12.101562 C 52.089844 12.101562 52.507812 11.683594 52.507812 11.164062 C 52.507812 10.648438 52.089844 10.226562 51.570312 10.226562 L 43.796875 10.226562 L 43.796875 8.136719 C 43.796875 7.617188 43.378906 7.199219 42.859375 7.199219 C 42.339844 7.199219 41.921875 7.617188 41.921875 8.136719 L 41.921875 10.226562 L 34.148438 10.226562 C 33.628906 10.226562 33.210938 10.648438 33.210938 11.164062 C 33.210938 11.683594 33.628906 12.101562 34.148438 12.101562 L 46.871094 12.101562 C 46.617188 14.03125 45.742188 18.476562 42.863281 22.546875 C 41.589844 20.757812 40.71875 18.917969 40.121094 17.285156 C 39.945312 16.796875 39.40625 16.546875 38.921875 16.722656 C 38.433594 16.902344 38.183594 17.441406 38.359375 17.925781 C 38.675781 18.792969 39.066406 19.714844 39.542969 20.660156 C 39.308594 20.609375 39.066406 20.582031 38.820312 20.582031 L 30.574219 20.582031 C 30.054688 20.582031 29.636719 21 29.636719 21.519531 C 29.636719 22.039062 30.054688 22.457031 30.574219 22.457031 L 38.820312 22.457031 C 39.695312 22.457031 40.40625 23.167969 40.40625 24.046875 L 40.40625 49.300781 C 40.40625 50.175781 39.695312 50.886719 38.820312 50.886719 L 14.320312 50.886719 C 14.074219 50.886719 13.835938 50.984375 13.660156 51.160156 L 7.179688 57.640625 L 7.179688 51.824219 C 7.179688 51.304688 6.757812 50.886719 6.242188 50.886719 L 3.460938 50.886719 C 2.585938 50.886719 1.875 50.175781 1.875 49.300781 L 1.875 46.929688 C 1.875 46.410156 1.457031 45.992188 0.9375 45.992188 C 0.417969 45.992188 0 46.410156 0 46.929688 L 0 49.300781 C 0 51.207031 1.554688 52.761719 3.460938 52.761719 L 5.304688 52.761719 L 5.304688 59.90625 C 5.304688 60.285156 5.53125 60.625 5.882812 60.773438 C 6 60.820312 6.121094 60.84375 6.242188 60.84375 C 6.484375 60.84375 6.722656 60.746094 6.902344 60.570312 L 14.710938 52.761719 L 38.820312 52.761719 C 40.726562 52.761719 42.28125 51.207031 42.28125 49.300781 L 42.28125 35.335938 L 49.289062 35.335938 L 57.097656 43.144531 C 57.273438 43.324219 57.515625 43.417969 57.757812 43.417969 C 57.878906 43.417969 58 43.394531 58.117188 43.347656 C 58.46875 43.203125 58.695312 42.859375 58.695312 42.480469 L 58.695312 35.335938 L 60.539062 35.335938 C 62.445312 35.335938 64 33.78125 64 31.875 L 64 20.441406 C 64 19.925781 63.582031 19.503906 63.0625 19.503906 Z M 63.0625 19.503906 " />
    <path style=" stroke:none;fill-rule:nonzero;fill:#5d78ff;fill-opacity:1;"
      d="M 13.242188 48.117188 L 15.09375 43.265625 L 27.207031 43.265625 L 29.035156 48.113281 C 29.179688 48.492188 29.535156 48.722656 29.914062 48.722656 C 30.023438 48.722656 30.136719 48.703125 30.246094 48.660156 C 30.730469 48.476562 30.972656 47.9375 30.789062 47.453125 L 22.523438 25.542969 C 22.519531 25.53125 22.515625 25.523438 22.511719 25.515625 C 22.289062 24.972656 21.765625 24.621094 21.179688 24.621094 C 21.179688 24.621094 21.179688 24.621094 21.175781 24.621094 C 20.589844 24.625 20.066406 24.976562 19.84375 25.519531 C 19.84375 25.527344 19.839844 25.53125 19.835938 25.539062 L 11.492188 47.449219 C 11.308594 47.933594 11.550781 48.476562 12.035156 48.660156 C 12.519531 48.84375 13.058594 48.601562 13.242188 48.117188 Z M 21.175781 27.289062 L 26.5 41.390625 L 15.804688 41.390625 Z M 21.175781 27.289062 " />
  </g>
</svg>