<?xml version="1.0" encoding="UTF-8"?>
<svg xmlns="http://www.w3.org/2000/svg" xmlns:xlink="http://www.w3.org/1999/xlink" width="64" height="64" viewBox="0 0 64 64" version="1.1">
<g id="surface1">
<path style=" stroke:none;fill-rule:nonzero;fill:#5d78ff;fill-opacity:1;" d="M 12.90625 48.480469 C 12.90625 47.960938 12.484375 47.542969 11.96875 47.542969 C 6.402344 47.542969 1.875 43.019531 1.875 37.457031 C 1.875 33.511719 4.199219 29.90625 7.792969 28.273438 C 8.265625 28.058594 8.472656 27.5 8.257812 27.03125 C 8.042969 26.558594 7.488281 26.351562 7.015625 26.566406 C 2.753906 28.503906 0 32.777344 0 37.457031 C 0 44.050781 5.367188 49.417969 11.96875 49.417969 C 12.484375 49.417969 12.90625 49 12.90625 48.480469 Z M 12.90625 48.480469 "/>
<path style=" stroke:none;fill-rule:nonzero;fill:#5d78ff;fill-opacity:1;" d="M 19.632812 28.894531 C 20.984375 21.347656 27.542969 15.867188 35.230469 15.867188 C 41.109375 15.867188 46.476562 19.09375 49.238281 24.285156 C 49.480469 24.742188 50.050781 24.917969 50.507812 24.675781 C 50.964844 24.429688 51.136719 23.863281 50.894531 23.40625 C 50.367188 22.417969 49.757812 21.496094 49.078125 20.640625 L 49.078125 8.144531 L 51.34375 5.441406 C 51.652344 5.558594 51.984375 5.621094 52.332031 5.621094 C 53.882812 5.621094 55.144531 4.359375 55.144531 2.808594 C 55.144531 1.261719 53.882812 0 52.332031 0 C 50.78125 0 49.519531 1.261719 49.519531 2.808594 C 49.519531 3.332031 49.660156 3.820312 49.910156 4.238281 L 47.421875 7.199219 C 47.28125 7.371094 47.203125 7.582031 47.203125 7.804688 L 47.203125 18.636719 C 45.554688 17.128906 43.640625 15.949219 41.558594 15.15625 L 41.558594 8.609375 C 42.648438 8.222656 43.433594 7.183594 43.433594 5.960938 C 43.433594 4.410156 42.171875 3.152344 40.621094 3.152344 C 39.070312 3.152344 37.808594 4.410156 37.808594 5.960938 C 37.808594 7.183594 38.59375 8.222656 39.683594 8.609375 L 39.683594 14.558594 C 38.25 14.1875 36.757812 13.992188 35.230469 13.992188 C 34.457031 13.992188 33.691406 14.042969 32.9375 14.140625 L 32.9375 5.460938 C 34.027344 5.074219 34.8125 4.03125 34.8125 2.808594 C 34.8125 1.261719 33.550781 0 32 0 C 30.449219 0 29.1875 1.261719 29.1875 2.808594 C 29.1875 4.03125 29.972656 5.074219 31.0625 5.460938 L 31.0625 14.484375 C 28.578125 15.082031 26.28125 16.203125 24.316406 17.738281 L 24.316406 8.609375 C 25.40625 8.222656 26.191406 7.183594 26.191406 5.960938 C 26.191406 4.410156 24.929688 3.152344 23.378906 3.152344 C 21.828125 3.152344 20.566406 4.410156 20.566406 5.960938 C 20.566406 7.183594 21.351562 8.222656 22.441406 8.609375 L 22.441406 19.425781 C 20.398438 21.550781 18.875 24.195312 18.089844 27.175781 C 17.652344 26.914062 17.203125 26.683594 16.738281 26.480469 L 16.738281 7.804688 C 16.738281 7.582031 16.660156 7.371094 16.519531 7.199219 L 14.03125 4.238281 C 14.28125 3.820312 14.421875 3.332031 14.421875 2.808594 C 14.421875 1.261719 13.160156 0 11.609375 0 C 10.058594 0 8.796875 1.261719 8.796875 2.808594 C 8.796875 4.359375 10.058594 5.621094 11.609375 5.621094 C 11.957031 5.621094 12.289062 5.558594 12.59375 5.441406 L 14.863281 8.144531 L 14.863281 25.847656 C 13.925781 25.613281 12.957031 25.496094 11.96875 25.496094 C 11.449219 25.496094 11.03125 25.917969 11.03125 26.433594 C 11.03125 26.953125 11.449219 27.371094 11.96875 27.371094 C 14.222656 27.371094 16.355469 28.097656 18.136719 29.472656 C 18.300781 29.601562 18.503906 29.667969 18.707031 29.667969 C 18.820312 29.667969 18.9375 29.648438 19.046875 29.605469 C 19.351562 29.488281 19.574219 29.21875 19.632812 28.894531 Z M 52.332031 1.875 C 52.847656 1.875 53.269531 2.292969 53.269531 2.808594 C 53.269531 3.324219 52.847656 3.746094 52.332031 3.746094 C 51.8125 3.746094 51.394531 3.324219 51.394531 2.808594 C 51.394531 2.292969 51.8125 1.875 52.332031 1.875 Z M 40.621094 5.027344 C 41.136719 5.027344 41.558594 5.445312 41.558594 5.960938 C 41.558594 6.476562 41.136719 6.894531 40.621094 6.894531 C 40.105469 6.894531 39.683594 6.476562 39.683594 5.960938 C 39.683594 5.445312 40.105469 5.027344 40.621094 5.027344 Z M 32 1.875 C 32.515625 1.875 32.9375 2.292969 32.9375 2.808594 C 32.9375 3.324219 32.515625 3.746094 32 3.746094 C 31.484375 3.746094 31.0625 3.324219 31.0625 2.808594 C 31.0625 2.292969 31.484375 1.875 32 1.875 Z M 23.378906 5.027344 C 23.894531 5.027344 24.316406 5.445312 24.316406 5.960938 C 24.316406 6.476562 23.894531 6.894531 23.378906 6.894531 C 22.863281 6.894531 22.441406 6.476562 22.441406 5.960938 C 22.441406 5.445312 22.863281 5.027344 23.378906 5.027344 Z M 10.671875 2.808594 C 10.671875 2.292969 11.09375 1.875 11.609375 1.875 C 12.128906 1.875 12.546875 2.292969 12.546875 2.808594 C 12.546875 3.324219 12.128906 3.746094 11.609375 3.746094 C 11.09375 3.746094 10.671875 3.324219 10.671875 2.808594 Z M 10.671875 2.808594 "/>
<path style=" stroke:none;fill-rule:nonzero;fill:#5d78ff;fill-opacity:1;" d="M 54.972656 31.371094 C 54.285156 31.371094 53.613281 31.445312 52.957031 31.597656 C 52.949219 30.289062 52.796875 28.992188 52.507812 27.730469 C 52.390625 27.222656 51.886719 26.910156 51.382812 27.023438 C 50.878906 27.140625 50.5625 27.644531 50.679688 28.148438 C 50.945312 29.308594 51.082031 30.503906 51.082031 31.707031 C 51.082031 32.070312 51.066406 32.445312 51.042969 32.816406 C 51.019531 33.136719 51.164062 33.449219 51.425781 33.636719 C 51.683594 33.828125 52.023438 33.871094 52.324219 33.75 C 53.164062 33.414062 54.054688 33.246094 54.972656 33.246094 C 58.914062 33.246094 62.125 36.453125 62.125 40.394531 C 62.125 44.335938 58.914062 47.542969 54.972656 47.542969 L 51.898438 47.542969 C 51.378906 47.542969 50.960938 47.960938 50.960938 48.480469 C 50.960938 49 51.378906 49.417969 51.898438 49.417969 L 54.972656 49.417969 C 59.949219 49.417969 64 45.371094 64 40.394531 C 64 35.417969 59.949219 31.371094 54.972656 31.371094 Z M 54.972656 31.371094 "/>
<path style=" stroke:none;fill-rule:nonzero;fill:#5d78ff;fill-opacity:1;" d="M 44.441406 47.542969 L 35.75 47.542969 C 35.234375 47.542969 34.8125 47.960938 34.8125 48.480469 C 34.8125 49 35.234375 49.417969 35.75 49.417969 L 39.683594 49.417969 L 39.683594 58.539062 C 38.59375 58.925781 37.808594 59.96875 37.808594 61.191406 C 37.808594 62.738281 39.070312 64 40.621094 64 C 42.171875 64 43.433594 62.738281 43.433594 61.191406 C 43.433594 59.96875 42.648438 58.925781 41.558594 58.539062 L 41.558594 49.417969 L 44.441406 49.417969 C 44.957031 49.417969 45.378906 49 45.378906 48.480469 C 45.378906 47.960938 44.957031 47.542969 44.441406 47.542969 Z M 40.621094 62.125 C 40.105469 62.125 39.683594 61.707031 39.683594 61.191406 C 39.683594 60.675781 40.105469 60.253906 40.621094 60.253906 C 41.136719 60.253906 41.558594 60.675781 41.558594 61.191406 C 41.558594 61.707031 41.136719 62.125 40.621094 62.125 Z M 40.621094 62.125 "/>
<path style=" stroke:none;fill-rule:nonzero;fill:#5d78ff;fill-opacity:1;" d="M 28.246094 47.542969 L 19.707031 47.542969 C 19.191406 47.542969 18.769531 47.960938 18.769531 48.480469 C 18.769531 49 19.191406 49.417969 19.707031 49.417969 L 22.441406 49.417969 L 22.441406 58.539062 C 21.351562 58.925781 20.566406 59.96875 20.566406 61.191406 C 20.566406 62.738281 21.828125 64 23.378906 64 C 24.929688 64 26.191406 62.738281 26.191406 61.191406 C 26.191406 59.96875 25.40625 58.925781 24.316406 58.539062 L 24.316406 49.417969 L 28.246094 49.417969 C 28.761719 49.417969 29.183594 49 29.183594 48.480469 C 29.183594 47.960938 28.761719 47.542969 28.246094 47.542969 Z M 23.378906 62.125 C 22.863281 62.125 22.441406 61.707031 22.441406 61.191406 C 22.441406 60.675781 22.863281 60.253906 23.378906 60.253906 C 23.894531 60.253906 24.316406 60.675781 24.316406 61.191406 C 24.316406 61.707031 23.894531 62.125 23.378906 62.125 Z M 23.378906 62.125 "/>
<path style=" stroke:none;fill-rule:nonzero;fill:#5d78ff;fill-opacity:1;" d="M 15.859375 39.453125 C 14.308594 39.453125 13.046875 40.714844 13.046875 42.265625 C 13.046875 43.484375 13.832031 44.527344 14.921875 44.914062 L 14.921875 57.726562 L 10.953125 62.460938 C 10.617188 62.855469 10.671875 63.449219 11.066406 63.78125 C 11.242188 63.929688 11.457031 64 11.667969 64 C 11.9375 64 12.203125 63.886719 12.386719 63.664062 L 16.578125 58.671875 C 16.71875 58.503906 16.796875 58.289062 16.796875 58.070312 L 16.796875 44.914062 C 17.890625 44.527344 18.671875 43.484375 18.671875 42.265625 C 18.671875 40.714844 17.410156 39.453125 15.859375 39.453125 Z M 15.859375 43.199219 C 15.34375 43.199219 14.921875 42.78125 14.921875 42.265625 C 14.921875 41.75 15.34375 41.328125 15.859375 41.328125 C 16.378906 41.328125 16.796875 41.75 16.796875 42.265625 C 16.796875 42.78125 16.378906 43.199219 15.859375 43.199219 Z M 15.859375 43.199219 "/>
<path style=" stroke:none;fill-rule:nonzero;fill:#5d78ff;fill-opacity:1;" d="M 32 39.453125 C 30.449219 39.453125 29.1875 40.714844 29.1875 42.265625 C 29.1875 43.484375 29.972656 44.527344 31.0625 44.914062 L 31.0625 63.0625 C 31.0625 63.582031 31.480469 64 32 64 C 32.519531 64 32.9375 63.582031 32.9375 63.0625 L 32.9375 44.914062 C 34.027344 44.527344 34.8125 43.484375 34.8125 42.265625 C 34.8125 40.714844 33.550781 39.453125 32 39.453125 Z M 32 43.199219 C 31.484375 43.199219 31.0625 42.78125 31.0625 42.265625 C 31.0625 41.75 31.484375 41.328125 32 41.328125 C 32.515625 41.328125 32.9375 41.75 32.9375 42.265625 C 32.9375 42.78125 32.515625 43.199219 32 43.199219 Z M 32 43.199219 "/>
<path style=" stroke:none;fill-rule:nonzero;fill:#5d78ff;fill-opacity:1;" d="M 49.078125 57.726562 L 49.078125 44.914062 C 50.167969 44.527344 50.953125 43.484375 50.953125 42.265625 C 50.953125 40.714844 49.691406 39.453125 48.140625 39.453125 C 46.589844 39.453125 45.328125 40.714844 45.328125 42.265625 C 45.328125 43.484375 46.109375 44.527344 47.203125 44.914062 L 47.203125 58.070312 C 47.203125 58.289062 47.28125 58.503906 47.421875 58.671875 L 51.613281 63.664062 C 51.796875 63.886719 52.0625 64 52.332031 64 C 52.542969 64 52.757812 63.929688 52.933594 63.78125 C 53.328125 63.449219 53.382812 62.855469 53.046875 62.460938 Z M 48.140625 41.328125 C 48.65625 41.328125 49.078125 41.75 49.078125 42.265625 C 49.078125 42.78125 48.65625 43.199219 48.140625 43.199219 C 47.621094 43.199219 47.203125 42.78125 47.203125 42.265625 C 47.203125 41.75 47.621094 41.328125 48.140625 41.328125 Z M 48.140625 41.328125 "/>
</g>
</svg>
