<?xml version="1.0" encoding="UTF-8"?>
<svg xmlns="http://www.w3.org/2000/svg" xmlns:xlink="http://www.w3.org/1999/xlink" width="64" height="64" viewBox="0 0 64 64" version="1.1">
<g id="surface1">
<path style=" stroke:none;fill-rule:nonzero;fill:#5d78ff;fill-opacity:1;" d="M 55 36.90625 L 52 36.90625 L 52 33.90625 C 52 31.148438 49.757812 28.90625 47 28.90625 L 42 28.90625 L 42 25.90625 C 42 25.351562 41.550781 24.90625 41 24.90625 L 33 24.90625 L 33 22.761719 C 34.71875 22.316406 36 20.761719 36 18.90625 C 36 16.699219 34.207031 14.90625 32 14.90625 C 29.792969 14.90625 28 16.699219 28 18.90625 C 28 20.761719 29.28125 22.316406 31 22.761719 L 31 24.90625 L 23 24.90625 C 22.449219 24.90625 22 25.351562 22 25.90625 L 22 28.90625 L 17 28.90625 C 14.242188 28.90625 12 31.148438 12 33.90625 L 12 36.90625 L 9 36.90625 C 7.347656 36.90625 6 38.25 6 39.90625 L 6 51.90625 C 6 53.558594 7.347656 54.90625 9 54.90625 L 12 54.90625 L 12 57.90625 C 12 60.660156 14.242188 62.90625 17 62.90625 L 47 62.90625 C 49.757812 62.90625 52 60.660156 52 57.90625 L 52 54.90625 L 55 54.90625 C 56.652344 54.90625 58 53.558594 58 51.90625 L 58 39.90625 C 58 38.25 56.652344 36.90625 55 36.90625 Z M 30 18.90625 C 30 17.800781 30.898438 16.90625 32 16.90625 C 33.101562 16.90625 34 17.800781 34 18.90625 C 34 20.007812 33.101562 20.90625 32 20.90625 C 30.898438 20.90625 30 20.007812 30 18.90625 Z M 9 52.90625 C 8.449219 52.90625 8 52.457031 8 51.90625 L 8 39.90625 C 8 39.355469 8.449219 38.90625 9 38.90625 L 12 38.90625 L 12 52.90625 Z M 24 26.90625 L 40 26.90625 L 40 28.90625 L 24 28.90625 Z M 50 57.90625 C 50 59.558594 48.652344 60.90625 47 60.90625 L 17 60.90625 C 15.347656 60.90625 14 59.558594 14 57.90625 L 14 33.90625 C 14 32.25 15.347656 30.90625 17 30.90625 L 47 30.90625 C 48.652344 30.90625 50 32.25 50 33.90625 Z M 56 51.90625 C 56 52.457031 55.550781 52.90625 55 52.90625 L 52 52.90625 L 52 38.90625 L 55 38.90625 C 55.550781 38.90625 56 39.355469 56 39.90625 Z M 56 51.90625 "/>
<path style=" stroke:none;fill-rule:nonzero;fill:#5d78ff;fill-opacity:1;" d="M 41 46.90625 L 23 46.90625 C 22.449219 46.90625 22 47.351562 22 47.90625 L 22 48.90625 C 22 54.417969 26.484375 58.90625 32 58.90625 C 37.515625 58.90625 42 54.417969 42 48.90625 L 42 47.90625 C 42 47.351562 41.550781 46.90625 41 46.90625 Z M 32 56.90625 C 27.589844 56.90625 24 53.316406 24 48.90625 L 40 48.90625 C 40 53.316406 36.410156 56.90625 32 56.90625 Z M 32 56.90625 "/>
<path style=" stroke:none;fill-rule:nonzero;fill:#5d78ff;fill-opacity:1;" d="M 26 40.90625 C 26 38.699219 24.207031 36.90625 22 36.90625 C 19.792969 36.90625 18 38.699219 18 40.90625 C 18 43.109375 19.792969 44.90625 22 44.90625 C 24.207031 44.90625 26 43.109375 26 40.90625 Z M 20 40.90625 C 20 39.800781 20.898438 38.90625 22 38.90625 C 23.101562 38.90625 24 39.800781 24 40.90625 C 24 42.007812 23.101562 42.90625 22 42.90625 C 20.898438 42.90625 20 42.007812 20 40.90625 Z M 20 40.90625 "/>
<path style=" stroke:none;fill-rule:nonzero;fill:#5d78ff;fill-opacity:1;" d="M 42 36.90625 C 39.792969 36.90625 38 38.699219 38 40.90625 C 38 43.109375 39.792969 44.90625 42 44.90625 C 44.207031 44.90625 46 43.109375 46 40.90625 C 46 38.699219 44.207031 36.90625 42 36.90625 Z M 42 42.90625 C 40.898438 42.90625 40 42.007812 40 40.90625 C 40 39.800781 40.898438 38.90625 42 38.90625 C 43.101562 38.90625 44 39.800781 44 40.90625 C 44 42.007812 43.101562 42.90625 42 42.90625 Z M 42 42.90625 "/>
<path style=" stroke:none;fill-rule:nonzero;fill:#5d78ff;fill-opacity:1;" d="M 16.292969 22.613281 C 16.484375 22.804688 16.738281 22.90625 17 22.90625 C 17.128906 22.90625 17.257812 22.878906 17.382812 22.828125 C 17.757812 22.675781 18 22.308594 18 21.90625 L 18 18.90625 L 24 18.90625 C 25.652344 18.90625 27 17.558594 27 15.90625 L 27 3.90625 C 27 2.25 25.652344 0.90625 24 0.90625 L 4 0.90625 C 2.347656 0.90625 1 2.25 1 3.90625 L 1 15.90625 C 1 17.558594 2.347656 18.90625 4 18.90625 L 12.585938 18.90625 Z M 3 15.90625 L 3 3.90625 C 3 3.355469 3.449219 2.90625 4 2.90625 L 24 2.90625 C 24.550781 2.90625 25 3.355469 25 3.90625 L 25 15.90625 C 25 16.457031 24.550781 16.90625 24 16.90625 L 17 16.90625 C 16.449219 16.90625 16 17.351562 16 17.90625 L 16 19.492188 L 13.707031 17.199219 C 13.519531 17.011719 13.265625 16.90625 13 16.90625 L 4 16.90625 C 3.449219 16.90625 3 16.457031 3 15.90625 Z M 3 15.90625 "/>
<path style=" stroke:none;fill-rule:nonzero;fill:#5d78ff;fill-opacity:1;" d="M 60 4.90625 L 40 4.90625 C 38.347656 4.90625 37 6.25 37 7.90625 L 37 19.90625 C 37 21.558594 38.347656 22.90625 40 22.90625 L 46 22.90625 L 46 25.90625 C 46 26.308594 46.242188 26.675781 46.617188 26.828125 C 46.742188 26.878906 46.871094 26.90625 47 26.90625 C 47.261719 26.90625 47.515625 26.804688 47.707031 26.613281 L 51.414062 22.90625 L 60 22.90625 C 61.652344 22.90625 63 21.558594 63 19.90625 L 63 7.90625 C 63 6.25 61.652344 4.90625 60 4.90625 Z M 61 19.90625 C 61 20.457031 60.550781 20.90625 60 20.90625 L 51 20.90625 C 50.734375 20.90625 50.480469 21.011719 50.292969 21.199219 L 48 23.492188 L 48 21.90625 C 48 21.351562 47.550781 20.90625 47 20.90625 L 40 20.90625 C 39.449219 20.90625 39 20.457031 39 19.90625 L 39 7.90625 C 39 7.355469 39.449219 6.90625 40 6.90625 L 60 6.90625 C 60.550781 6.90625 61 7.355469 61 7.90625 Z M 61 19.90625 "/>
<path style=" stroke:none;fill-rule:nonzero;fill:#5d78ff;fill-opacity:1;" d="M 5 4.90625 L 23 4.90625 L 23 6.90625 L 5 6.90625 Z M 5 4.90625 "/>
<path style=" stroke:none;fill-rule:nonzero;fill:#5d78ff;fill-opacity:1;" d="M 5 12.90625 L 23 12.90625 L 23 14.90625 L 5 14.90625 Z M 5 12.90625 "/>
<path style=" stroke:none;fill-rule:nonzero;fill:#5d78ff;fill-opacity:1;" d="M 7 8.90625 L 21 8.90625 L 21 10.90625 L 7 10.90625 Z M 7 8.90625 "/>
<path style=" stroke:none;fill-rule:nonzero;fill:#5d78ff;fill-opacity:1;" d="M 41 8.90625 L 59 8.90625 L 59 10.90625 L 41 10.90625 Z M 41 8.90625 "/>
<path style=" stroke:none;fill-rule:nonzero;fill:#5d78ff;fill-opacity:1;" d="M 41 16.90625 L 59 16.90625 L 59 18.90625 L 41 18.90625 Z M 41 16.90625 "/>
<path style=" stroke:none;fill-rule:nonzero;fill:#5d78ff;fill-opacity:1;" d="M 43 12.90625 L 57 12.90625 L 57 14.90625 L 43 14.90625 Z M 43 12.90625 "/>
</g>
</svg>
