<?xml version="1.0" encoding="UTF-8"?>
<svg xmlns="http://www.w3.org/2000/svg" xmlns:xlink="http://www.w3.org/1999/xlink" width="64" height="64"
  viewBox="0 0 64 64" version="1.1">
  <g id="surface1">
    <path style=" stroke:none;fill-rule:nonzero;fill:#5d78ff;fill-opacity:1;"
      d="M 63.628906 44.484375 L 60.578125 41.457031 C 60.089844 40.96875 59.296875 40.972656 58.8125 41.464844 C 58.324219 41.953125 58.328125 42.746094 58.816406 43.230469 L 61.871094 46.257812 C 62.113281 46.5 62.429688 46.621094 62.75 46.621094 C 63.070312 46.621094 63.394531 46.496094 63.636719 46.25 C 64.125 45.761719 64.121094 44.96875 63.628906 44.484375 Z M 63.628906 44.484375 " />
    <path style=" stroke:none;fill-rule:nonzero;fill:#5d78ff;fill-opacity:1;"
      d="M 57.46875 38.359375 C 56.980469 37.871094 56.191406 37.871094 55.703125 38.359375 L 55.699219 38.363281 C 55.210938 38.851562 55.210938 39.640625 55.699219 40.128906 C 55.945312 40.375 56.265625 40.496094 56.585938 40.496094 C 56.90625 40.496094 57.226562 40.371094 57.46875 40.128906 C 57.957031 39.640625 57.957031 38.847656 57.46875 38.359375 Z M 57.46875 38.359375 " />
    <path style=" stroke:none;fill-rule:nonzero;fill:#5d78ff;fill-opacity:1;"
      d="M 46.8125 44.125 L 58.941406 31.996094 C 60.777344 30.160156 60.777344 27.171875 58.941406 25.332031 C 58.292969 24.6875 57.5 24.269531 56.667969 24.078125 C 56.953125 23.460938 57.105469 22.789062 57.105469 22.089844 C 57.105469 20.832031 56.613281 19.648438 55.726562 18.757812 C 55.027344 18.0625 54.148438 17.609375 53.195312 17.449219 C 53.730469 15.8125 53.351562 13.9375 52.054688 12.640625 C 51.339844 11.925781 50.453125 11.492188 49.527344 11.332031 C 49.679688 10.863281 49.761719 10.363281 49.761719 9.855469 C 49.761719 8.59375 49.273438 7.414062 48.382812 6.523438 C 47.492188 5.632812 46.308594 5.144531 45.050781 5.144531 C 44.253906 5.144531 43.484375 5.339844 42.800781 5.714844 L 42.679688 5.582031 C 41.113281 3.898438 38.894531 2.933594 36.59375 2.933594 L 26.773438 2.933594 C 26.085938 2.933594 25.523438 3.492188 25.523438 4.183594 L 25.523438 5.824219 C 25.523438 6.480469 25.636719 7.117188 25.847656 7.71875 C 25.28125 7.484375 24.671875 7.359375 24.039062 7.359375 C 22.78125 7.359375 21.597656 7.851562 20.707031 8.738281 C 19.410156 10.039062 19.03125 11.914062 19.570312 13.550781 C 18.640625 13.707031 17.753906 14.144531 17.039062 14.859375 C 16.148438 15.746094 15.65625 16.929688 15.65625 18.1875 C 15.65625 18.699219 15.738281 19.195312 15.894531 19.664062 C 14.941406 19.828125 14.0625 20.277344 13.367188 20.976562 C 11.933594 22.410156 11.617188 24.546875 12.425781 26.289062 C 11.570312 26.484375 10.785156 26.914062 10.152344 27.550781 C 8.3125 29.386719 8.3125 32.375 10.152344 34.214844 L 12.644531 36.707031 L 0.367188 48.988281 C -0.121094 49.476562 -0.121094 50.265625 0.367188 50.753906 C 0.609375 51 0.929688 51.121094 1.25 51.121094 C 1.570312 51.121094 1.890625 51 2.132812 50.753906 L 14.53125 38.355469 C 15.234375 38.757812 16.03125 38.972656 16.859375 38.972656 C 18.117188 38.972656 19.300781 38.480469 20.191406 37.59375 C 21.160156 36.625 21.617188 35.339844 21.566406 34.070312 C 21.628906 34.074219 21.691406 34.074219 21.753906 34.074219 C 22.960938 34.074219 24.167969 33.617188 25.085938 32.695312 C 25.976562 31.808594 26.464844 30.625 26.464844 29.367188 C 26.464844 29.300781 26.464844 29.238281 26.460938 29.175781 C 26.523438 29.179688 26.585938 29.179688 26.648438 29.179688 C 27.855469 29.179688 29.0625 28.722656 29.980469 27.800781 C 30.871094 26.914062 31.359375 25.730469 31.359375 24.472656 C 31.359375 24.40625 31.359375 24.34375 31.355469 24.28125 C 31.417969 24.285156 31.480469 24.285156 31.542969 24.285156 C 32.75 24.285156 33.957031 23.828125 34.875 22.90625 C 36.601562 21.183594 36.707031 18.4375 35.1875 16.589844 L 43.488281 8.289062 C 43.90625 7.875 44.460938 7.644531 45.050781 7.644531 C 45.640625 7.644531 46.195312 7.875 46.613281 8.289062 C 47.03125 8.707031 47.261719 9.261719 47.261719 9.855469 C 47.261719 10.445312 47.03125 11 46.613281 11.417969 L 40.949219 17.082031 C 40.460938 17.570312 40.460938 18.359375 40.949219 18.847656 C 41.195312 19.09375 41.515625 19.214844 41.835938 19.214844 C 42.15625 19.214844 42.472656 19.09375 42.71875 18.847656 L 47.160156 14.410156 C 48.019531 13.546875 49.421875 13.546875 50.285156 14.410156 C 51.148438 15.269531 51.148438 16.675781 50.285156 17.535156 L 45.84375 21.976562 C 45.355469 22.464844 45.355469 23.253906 45.84375 23.742188 C 46.089844 23.988281 46.410156 24.109375 46.730469 24.109375 C 47.050781 24.109375 47.367188 23.988281 47.613281 23.742188 L 50.828125 20.527344 C 51.246094 20.109375 51.800781 19.878906 52.390625 19.878906 C 52.984375 19.878906 53.539062 20.109375 53.957031 20.527344 C 54.375 20.945312 54.601562 21.5 54.601562 22.089844 C 54.601562 22.683594 54.375 23.238281 53.957031 23.65625 L 52.277344 25.335938 L 50.738281 26.871094 C 50.25 27.359375 50.25 28.148438 50.738281 28.640625 C 50.984375 28.882812 51.304688 29.003906 51.625 29.003906 C 51.945312 29.003906 52.261719 28.882812 52.507812 28.640625 L 54.046875 27.101562 C 54.90625 26.242188 56.308594 26.242188 57.171875 27.101562 C 58.03125 27.964844 58.03125 29.367188 57.171875 30.230469 L 45.042969 42.359375 C 41.996094 45.402344 37.949219 47.167969 33.644531 47.324219 C 33.328125 47.335938 33.027344 47.464844 32.804688 47.691406 L 21.601562 58.933594 C 21.113281 59.425781 21.113281 60.214844 21.605469 60.703125 C 21.847656 60.945312 22.167969 61.066406 22.484375 61.066406 C 22.808594 61.066406 23.128906 60.945312 23.371094 60.699219 L 31.613281 52.429688 C 33.707031 53.773438 36.167969 54.410156 38.671875 54.246094 L 45.121094 60.695312 C 45.363281 60.9375 45.683594 61.0625 46.003906 61.0625 C 46.324219 61.0625 46.644531 60.9375 46.886719 60.695312 C 47.375 60.207031 47.375 59.414062 46.886719 58.925781 L 40.03125 52.066406 C 39.769531 51.808594 39.410156 51.675781 39.042969 51.707031 L 38.648438 51.738281 C 36.820312 51.886719 35.011719 51.488281 33.429688 50.601562 L 34.234375 49.796875 C 38.988281 49.503906 43.4375 47.5 46.8125 44.125 Z M 18.421875 35.824219 C 18.007812 36.242188 17.449219 36.472656 16.859375 36.472656 C 16.269531 36.472656 15.714844 36.242188 15.296875 35.824219 L 11.917969 32.445312 C 11.058594 31.582031 11.058594 30.179688 11.917969 29.320312 C 12.335938 28.902344 12.890625 28.671875 13.480469 28.671875 C 14.074219 28.671875 14.628906 28.902344 15.046875 29.320312 L 18.425781 32.695312 C 19.285156 33.558594 19.285156 34.960938 18.421875 35.824219 Z M 23.320312 30.929688 C 22.457031 31.789062 21.054688 31.789062 20.191406 30.929688 L 15.132812 25.871094 C 14.273438 25.007812 14.273438 23.605469 15.132812 22.746094 C 15.550781 22.328125 16.105469 22.097656 16.695312 22.097656 C 17.289062 22.097656 17.84375 22.328125 18.261719 22.746094 L 23.316406 27.800781 C 23.316406 27.800781 23.316406 27.800781 23.320312 27.800781 C 23.734375 28.21875 23.964844 28.773438 23.964844 29.367188 C 23.964844 29.957031 23.734375 30.511719 23.320312 30.929688 Z M 28.214844 26.035156 C 27.351562 26.894531 25.949219 26.894531 25.085938 26.035156 L 18.804688 19.753906 C 18.386719 19.335938 18.15625 18.78125 18.15625 18.1875 C 18.15625 17.597656 18.386719 17.042969 18.804688 16.625 C 19.234375 16.195312 19.800781 15.980469 20.367188 15.980469 C 20.933594 15.980469 21.5 16.195312 21.929688 16.625 L 24.792969 19.488281 L 28.214844 22.90625 C 28.628906 23.324219 28.859375 23.878906 28.859375 24.472656 C 28.859375 25.0625 28.632812 25.617188 28.214844 26.035156 Z M 33.109375 21.140625 C 32.246094 22 30.84375 22 29.980469 21.140625 L 23.699219 14.859375 C 23.699219 14.855469 23.699219 14.855469 23.699219 14.855469 L 22.476562 13.632812 C 21.613281 12.773438 21.613281 11.371094 22.476562 10.507812 C 22.90625 10.078125 23.472656 9.859375 24.039062 9.859375 C 24.605469 9.859375 25.171875 10.078125 25.601562 10.507812 L 33.109375 18.011719 C 33.527344 18.429688 33.753906 18.984375 33.753906 19.574219 C 33.753906 20.167969 33.527344 20.722656 33.109375 21.140625 Z M 33.4375 14.804688 L 30.003906 11.371094 C 30.390625 11.453125 30.792969 11.5 31.199219 11.5 C 31.210938 11.5 31.21875 11.5 31.226562 11.5 L 34.660156 11.484375 C 35.347656 11.480469 35.90625 10.917969 35.902344 10.226562 C 35.898438 9.539062 35.339844 8.980469 34.652344 8.980469 C 34.652344 8.980469 34.648438 8.980469 34.648438 8.980469 L 31.214844 9 C 31.210938 9 31.207031 9 31.199219 9 C 30.355469 9 29.558594 8.671875 28.960938 8.074219 C 28.355469 7.472656 28.023438 6.671875 28.023438 5.824219 L 28.023438 5.433594 L 36.59375 5.433594 C 38.203125 5.433594 39.753906 6.109375 40.851562 7.285156 L 40.902344 7.339844 Z M 33.4375 14.804688 " />
  </g>
</svg>